<?xml version="1.0" encoding="utf-8"?>
<!-- Generator: Adobe Illustrator 25.0.1, SVG Export Plug-In . SVG Version: 6.00 Build 0)  -->
<svg version="1.0" id="Layer_1" xmlns="http://www.w3.org/2000/svg" xmlns:xlink="http://www.w3.org/1999/xlink" x="0px" y="0px"
	 viewBox="0 0 256.7 171.3" style="enable-background:new 0 0 256.7 171.3;" xml:space="preserve">
<style type="text/css">
	.st0{fill:#00BA00;}
	.st1{fill:#FF104D;}
	.st2{fill:#FF6600;}
</style>
<path class="st0" d="M62.6,113.3c1.5-1.3,2.9-2.7,4.4-4.1c2.4,2.6,4.9,5.2,7.2,7.9c-1.4,1.3-2.8,2.6-4.1,3.9
	c-3.8,3.5-8.6,5.7-13.7,6.3h-5c-5.2-0.5-10.1-2.8-13.9-6.5c2-1.9,4-3.8,6-5.7c2.7,1.8,5.9,3.3,9.3,3c3.7-0.3,7-2.4,9.7-4.8
	L62.6,113.3z"/>
<path class="st1" d="M34.3,59.4c0.2-5.8,2.6-11.3,6.6-15.4c1.9,2,3.7,4.1,5.6,6.1c-1,1.5-1.9,3.1-2.5,4.8c-0.9,2.7-0.8,5.6,0.2,8.2
	c1.5,3.7,4.2,6.6,6.9,9.4c-2.6,2.4-5.2,4.9-7.8,7.3c-1.6-1.6-3.1-3.3-4.4-5.1C35.7,70.3,34.1,64.9,34.3,59.4 M50.7,87.7l7.8-7.3
	c6.1,6.6,12.2,13.2,18.2,19.7c2.9-2.7,5.7-5.4,8.6-8.1c2.4,2.6,4.8,5.2,7.2,7.9c-2.9,2.7-5.7,5.4-8.6,8.1c1.8,1.9,3.5,3.8,5.3,5.7
	c-2.6,2.4-5.2,4.9-7.8,7.3C71.2,109.9,61,98.8,50.7,87.7z"/>
<path class="st2" d="M51.2,72.5c2.9-2.7,5.8-5.4,8.6-8.1c2.4,2.6,4.8,5.2,7.3,7.8c-2.9,2.7-5.7,5.4-8.6,8.1l-7.8,7.3l-6.1,5.8
	c-2.6,2.7-5.1,5.9-5.6,9.7c-0.5,3.4,0.8,6.8,2.5,9.7c-2,1.8-4,3.8-6,5.6c-2.9-3.4-4.8-7.5-5.4-11.9v-6.9c0.8-5.4,3.4-10.3,7.3-14.1
	c2-1.9,4.1-3.8,6.1-5.8C46,77.4,48.6,75,51.2,72.5L51.2,72.5z"/>
<path d="M104.6,65.9c1.5,0,2.9,0,4.4,0c0,8.2,0,16.3,0,24.5c4.5,0,9.1,0,13.6,0c0,1.3,0,2.6,0,3.9h-18L104.6,65.9 M126.3,84.4
	c0-6.2,0-12.3,0-18.5c1.5,0,2.9,0,4.4,0v18.9c-0.1,2,0.9,3.9,2.6,5c2.4,1.4,5.4,1.1,7.5-0.8c1.1-1.2,1.7-2.8,1.6-4.4
	c0-6.2,0-12.5,0-18.7c1.4,0,2.9,0,4.3,0c0,6.3,0,12.6,0,18.9c0,2.5-0.9,4.9-2.6,6.7c-2.1,2.1-5,3.2-8,3c-3.2,0-6.2-1.5-8.1-4.1
	C126.8,88.7,126.2,86.6,126.3,84.4 M150.5,66h19.9v3.9h-7.8c0,8.2,0,16.3,0,24.5c-1.4,0-2.9,0-4.3,0c0-8.2,0-16.3,0-24.5
	c-2.6,0-5.2,0-7.8,0L150.5,66 M104.9,102.2c1,0,2,0,3,0c0,4,0,8,0,12c-0.1,1.2,0.2,2.5,0.8,3.6c1.5,1.8,4.1,2.1,6,0.6
	c0.1-0.1,0.2-0.2,0.3-0.3c0.7-0.9,1.1-2,1.1-3.1c0-4.3,0-8.5,0-12.8c1-0.1,2,0,3.1,0c0,3.6,0,7.2,0,10.7c0,2.1,0.2,4.4-1.1,6.1
	c-2,3-6.3,3.7-9.4,2.2c-2.2-1.1-3.6-3.3-3.6-5.8L104.9,102.2 M138.7,102.1h3c0,1,0,2,0,3.1h-3V102.1 M199.6,102.1c1,0,2,0,3,0v3.1
	h-3V102.1 M207.2,103.9h2.9v4c0.9,0,1.8,0,2.7,0c0,0.7,0,1.4,0,2.2h-2.7c0,2.6,0,5.2,0,7.8c-0.1,0.6,0.2,1.1,0.6,1.4
	c0.6,0.2,1.3,0.3,2,0.2c0,0.8,0,1.6,0,2.4c-1.2-0.1-2.5,0.2-3.6-0.4c-1.2-0.6-1.9-1.9-1.9-3.2V110h-1.6v-2.2c0.5,0,1.1,0,1.6,0
	L207.2,103.9 M125.8,109.2c2-2.1,6-2,7.7,0.4c0.6,0.9,0.9,2,0.8,3.1c0,3.1,0,6.1,0,9.2c-0.9,0-1.9,0-2.8,0c-0.1-2.3,0-4.6,0-6.8
	c0-1.2,0.2-2.5-0.4-3.6c-0.9-1.3-2.7-1.6-4-0.7c-0.4,0.2-0.6,0.6-0.9,0.9c-0.3,0.9-0.5,1.9-0.3,2.9c0,2.4,0,4.8,0,7.2
	c-0.9,0-1.9,0-2.8,0c0-4.7,0-9.3,0-14h2.8L125.8,109.2 M159.6,109.9c2.1-2.6,5.8-3,8.3-0.9c0.4,0.3,0.8,0.7,1.1,1.1
	c0.9,1.7,1.3,3.6,1.2,5.6h-9.1c-0.1,1.4,0.5,2.7,1.7,3.5c1.8,0.9,3.9,0.5,5.2-1c0.6,0.6,1.3,1.1,1.9,1.8c-1,1-2.2,1.7-3.6,2
	c-1.9,0.4-3.8,0.1-5.5-0.9c-1.4-1.1-2.3-2.8-2.4-4.7C158,114.1,158.4,111.8,159.6,109.9 M162,111c-0.6,0.8-1,1.7-0.9,2.7h6.3
	c0-1-0.3-2-1-2.8C165.1,109.8,163.2,109.8,162,111 M176.8,109.2c1.9-1.9,5-2,7.1-0.2c-0.7,0.8-1.4,1.5-2.2,2.2
	c-0.9-1-2.4-1.2-3.5-0.5c-0.8,0.6-1.3,1.5-1.3,2.5v8.7c-1,0-1.9,0-2.9,0v-14c0.9,0,1.9,0,2.9,0C176.8,108.3,176.8,108.8,176.8,109.2
	 M186,110.6c0.7-1.6,2.2-2.8,4-2.8c2.2-0.2,4.6,0,6.3,1.5c-0.6,0.6-1.2,1.3-1.8,1.8c-1.1-0.8-2.4-1.1-3.7-1c-0.8,0-1.5,0.3-2,0.8
	c-0.5,0.7-0.4,1.6,0.3,2.1c0.1,0.1,0.2,0.1,0.2,0.1c1,0.3,2.1,0.4,3.2,0.4c1.5,0,2.9,0.7,3.8,1.9c0.7,1.3,0.7,2.8,0.1,4.1
	c-0.8,1.3-2.2,2.2-3.8,2.4c-2.6,0.4-5.6,0.1-7.6-1.9c0.6-0.7,1.2-1.3,1.9-1.9c1.3,1.2,3.1,1.7,4.9,1.4c0.8,0,1.6-0.5,2-1.2
	c0.3-0.8,0-1.7-0.8-2c-0.1,0-0.2-0.1-0.2-0.1c-1.9-0.4-4-0.1-5.7-1.2C185.8,114,185.3,112.2,186,110.6 M138.9,121.9
	c0-4.7,0-9.3,0-14c0.9,0,1.9,0,2.8,0c0,4.7,0,9.3,0,14C140.7,121.9,139.8,121.9,138.9,121.9 M144.1,107.9c1,0,2,0,3,0
	c1.1,3.2,2.2,6.4,3.2,9.7c1.2-3.2,2.2-6.4,3.3-9.7c1,0,2,0,3.1,0c-1.7,4.7-3.4,9.3-5.1,14c-0.8,0.1-1.6,0-2.4,0L144.1,107.9
	 M199.6,107.9c0.9,0,1.9,0,2.9,0c0,4.7,0,9.3,0,14c-0.9,0-1.9,0-2.9,0C199.6,117.2,199.6,112.6,199.6,107.9 M214.5,107.9h3.1
	c1.1,3.2,2.1,6.5,3.3,9.7c1-3.2,2.2-6.4,3.2-9.7c0.9,0,1.8,0,2.6,0v1.3c-1.8,4.8-3.5,9.6-5.3,14.4c-0.3,0.9-0.7,1.8-1.2,2.6
	c-0.5,0.6-1.1,1-1.9,1.2h-2.4v-2.5c0.8,0,1.9,0.1,2.3-0.7c0.5-1,0.8-1.9,1.1-2.9C217.7,116.8,216.1,112.4,214.5,107.9"/>
</svg>
