<svg width="50" height="50" viewBox="0 0 50 50" fill="none" xmlns="http://www.w3.org/2000/svg">
<path d="M14.0937 24.0219C14.0937 24.6375 14.1562 25.1375 14.275 25.5062C14.4062 25.8719 14.575 26.2719 14.8062 26.7062C14.88 26.821 14.9201 26.9542 14.9219 27.0906C14.9219 27.2562 14.8219 27.425 14.6094 27.5906L13.5594 28.2906C13.4333 28.3816 13.2834 28.4338 13.1281 28.4406C12.9594 28.4406 12.7937 28.3594 12.6281 28.2094C12.4035 27.9677 12.2026 27.705 12.0281 27.425C11.8422 27.1044 11.6702 26.776 11.5125 26.4406C10.2156 27.975 8.5875 28.7438 6.625 28.7438C5.22812 28.7438 4.1125 28.3406 3.3 27.5406C2.48437 26.7406 2.06875 25.6719 2.06875 24.3375C2.06875 22.9188 2.56875 21.7688 3.58125 20.9C4.59687 20.0313 5.94375 19.6 7.65625 19.6C8.21875 19.6 8.80312 19.65 9.41875 19.7313C10.0344 19.8156 10.6687 19.95 11.3312 20.1V18.8812C11.3312 17.6125 11.0656 16.7281 10.55 16.2125C10.0187 15.6938 9.11875 15.4438 7.8375 15.4438C7.25625 15.4438 6.65937 15.5125 6.04375 15.6625C5.4321 15.8081 4.83162 15.9971 4.24687 16.2281C4.05809 16.3136 3.86392 16.3867 3.66562 16.4469C3.5797 16.4753 3.49037 16.4921 3.4 16.4969C3.16562 16.4969 3.05 16.3281 3.05 15.9781V15.1594C3.05 14.8938 3.08125 14.6906 3.16562 14.5781C3.29155 14.4248 3.45225 14.3037 3.63437 14.225C4.2125 13.925 4.9125 13.675 5.72812 13.475C6.54062 13.2562 7.40625 13.1594 8.32187 13.1594C10.3 13.1594 11.7469 13.6094 12.6781 14.5094C13.5937 15.4094 14.0594 16.7781 14.0594 18.6156V24.0219H14.0906H14.0937ZM7.34062 26.5563C7.8875 26.5563 8.45312 26.4563 9.05312 26.2563C9.65 26.0563 10.1844 25.6875 10.6312 25.1875C10.8992 24.8805 11.0928 24.5158 11.1969 24.1219C11.2969 23.7188 11.3656 23.2375 11.3656 22.6688V21.9688C10.8609 21.8464 10.3497 21.7525 9.83437 21.6875C9.31621 21.6205 8.79435 21.586 8.27187 21.5844C7.15625 21.5844 6.34062 21.8031 5.79375 22.2531C5.24375 22.7031 4.98125 23.3375 4.98125 24.1719C4.98125 24.9531 5.17812 25.5375 5.59375 25.9406C5.99375 26.3562 6.575 26.5563 7.34062 26.5563ZM20.6937 28.3594C20.3937 28.3594 20.1937 28.3094 20.0625 28.1906C19.9281 28.0906 19.8125 27.8594 19.7125 27.5406L15.8062 14.6438C15.7292 14.4276 15.6778 14.2031 15.6531 13.975C15.6531 13.7094 15.7875 13.5594 16.0531 13.5594H17.6844C17.9969 13.5594 18.2156 13.6094 18.3312 13.725C18.4656 13.825 18.5656 14.0594 18.6656 14.375L21.4594 25.4219L24.0531 14.375C24.1344 14.0438 24.2344 13.825 24.3656 13.725C24.5661 13.6022 24.7997 13.5443 25.0344 13.5594H26.3625C26.6812 13.5594 26.8937 13.6094 27.0281 13.725C27.1625 13.825 27.2781 14.0594 27.3438 14.375L29.9719 25.5563L32.8469 14.375C32.9002 14.133 33.0154 13.9091 33.1812 13.725C33.3749 13.6023 33.6025 13.5443 33.8312 13.5594H35.3781C35.6437 13.5594 35.7938 13.6938 35.7938 13.975C35.7938 14.0594 35.775 14.1438 35.7625 14.2438C35.7356 14.3856 35.6959 14.5247 35.6437 14.6594L31.6344 27.5562C31.5344 27.8906 31.4187 28.1094 31.2875 28.2094C31.0988 28.3301 30.8768 28.388 30.6531 28.375H29.225C28.9094 28.375 28.6937 28.325 28.5594 28.2094C28.425 28.0906 28.3094 27.875 28.2437 27.5406L25.6656 16.7813L23.1031 27.5281C23.0219 27.8625 22.9219 28.0781 22.7906 28.1938C22.6562 28.3125 22.4219 28.3625 22.125 28.3625H20.6937V28.3594ZM42.0625 28.8094C41.1995 28.8105 40.3394 28.7098 39.5 28.5094C38.6688 28.3094 38.0219 28.0906 37.5875 27.8406C37.3219 27.6906 37.1406 27.525 37.0719 27.3719C37.0083 27.2248 36.9754 27.0664 36.975 26.9062V26.0563C36.975 25.7063 37.1063 25.5375 37.3563 25.5375C37.4583 25.5377 37.5596 25.5546 37.6562 25.5875C37.7562 25.6219 37.9062 25.6875 38.0719 25.7562C38.6344 26.0062 39.2531 26.2063 39.9 26.3406C40.5656 26.4719 41.2125 26.5406 41.8781 26.5406C42.9281 26.5406 43.7406 26.3563 44.3063 25.9906C44.578 25.8261 44.8012 25.5926 44.9533 25.3137C45.1054 25.0348 45.1808 24.7206 45.1719 24.4031C45.1775 24.1888 45.1406 23.9754 45.0634 23.7753C44.9862 23.5753 44.8701 23.3925 44.7219 23.2375C44.425 22.9187 43.8594 22.6344 43.0438 22.3688L40.6312 21.6188C39.4188 21.2344 38.5187 20.6656 37.9719 19.9156C37.4365 19.2226 37.1444 18.3726 37.1406 17.4969C37.1406 16.7969 37.2906 16.1781 37.5875 15.6438C37.8875 15.1125 38.2875 14.6438 38.7875 14.275C39.2875 13.8938 39.85 13.6094 40.5156 13.4094C41.1813 13.2094 41.8781 13.125 42.6094 13.125C42.9781 13.125 43.3594 13.1406 43.725 13.1906C44.1062 13.2406 44.4562 13.3094 44.8063 13.3781C45.1375 13.4594 45.4562 13.5406 45.7531 13.6438C46.0531 13.7438 46.2844 13.8438 46.4531 13.9438C46.6493 14.0423 46.8204 14.1845 46.9531 14.3594C47.0601 14.5221 47.1116 14.715 47.1 14.9094V15.6938C47.1 16.0438 46.9688 16.2281 46.7188 16.2281C46.4974 16.2028 46.283 16.1349 46.0875 16.0281C45.0826 15.5826 43.9929 15.3608 42.8937 15.3781C41.9469 15.3781 41.1969 15.5281 40.6812 15.8469C40.1656 16.1594 39.9 16.6469 39.9 17.3313C39.9 17.7969 40.0656 18.1969 40.4 18.5156C40.7313 18.8313 41.3469 19.1469 42.2281 19.4313L44.5906 20.1813C45.7875 20.5656 46.6531 21.1 47.1688 21.7844C47.6844 22.4688 47.9313 23.2531 47.9313 24.1219C47.9313 24.8406 47.7844 25.4875 47.5 26.0563C47.2056 26.627 46.7921 27.1278 46.2875 27.525C45.7719 27.9406 45.1562 28.2438 44.4406 28.4594C43.6906 28.6938 42.9094 28.8094 42.0625 28.8094Z" fill="white"/>
<path fill-rule="evenodd" clip-rule="evenodd" d="M45.2031 36.9156C39.7344 40.9687 31.7844 43.1219 24.95 43.1219C15.3719 43.1219 6.74062 39.5687 0.221875 33.6625C-0.29375 33.1937 0.171874 32.5594 0.784374 32.9281C7.8375 37.0312 16.5344 39.5187 25.5344 39.5187C31.6 39.5187 38.2687 38.25 44.4062 35.6469C45.3219 35.2312 46.1031 36.2469 45.2031 36.9156Z" fill="#FF9900"/>
<path fill-rule="evenodd" clip-rule="evenodd" d="M47.4812 34.3125C46.7844 33.4156 42.8594 33.8813 41.0812 34.0969C40.55 34.1656 40.4656 33.6969 40.9469 33.3469C44.0719 31.1438 49.2125 31.7781 49.8094 32.5125C50.4094 33.2625 49.6437 38.4188 46.7156 40.8875C46.2687 41.2719 45.8375 41.075 46.0344 40.575C46.7 38.9188 48.1812 35.2 47.4812 34.3156V34.3125Z" fill="#FF9900"/>
</svg>
