<svg width="50" height="50" viewBox="0 0 50 50" fill="none" xmlns="http://www.w3.org/2000/svg">
<path d="M43.7409 10.1878L27.9916 0.837303C26.1198 -0.279101 23.7864 -0.279101 21.9146 0.837303L6.16213 10.1878C4.26732 11.3309 3.11368 13.3866 3.12508 15.5995V34.2974C3.1148 36.5092 4.26829 38.5634 6.16213 39.7059L21.9114 49.0533C23.7835 50.169 26.1164 50.169 27.9885 49.0533L43.7378 39.7059C45.6338 38.5636 46.7887 36.5078 46.778 34.2943V15.5995C46.7894 13.3866 45.6357 11.3309 43.7409 10.1878Z" fill="white"/>
<path d="M43.8304 10.2103L28.0464 0.839147C26.1704 -0.279716 23.8319 -0.279716 21.9559 0.839147L6.16881 10.2103C4.26983 11.3559 3.11366 13.4161 3.12508 15.6339V34.373C3.11477 36.5896 4.2708 38.6484 6.16881 39.7934L21.9528 49.1614C23.829 50.2795 26.1671 50.2795 28.0432 49.1614L43.8272 39.7934C45.7274 38.6486 46.8849 36.5882 46.8741 34.3698V15.6339C46.8855 13.4161 45.7294 11.3559 43.8304 10.2103ZM22.5059 48.2037L6.72192 38.8357C5.16213 37.8906 4.21208 36.1968 4.21869 34.373V15.6339C4.21145 13.8099 5.16166 12.1158 6.72192 11.1711L22.5059 1.79997C24.0421 0.883511 25.9571 0.883511 27.4933 1.79997L43.2646 11.1711C44.5648 11.9586 45.4517 13.2791 45.6888 14.7805C45.1641 13.6648 43.9852 13.3582 42.6104 14.1484L27.6893 23.3899C25.8277 24.474 24.456 25.6972 24.4528 27.9412V46.3421C24.4528 47.6854 24.9933 48.5545 25.8277 48.8105C25.5544 48.8606 25.2774 48.8871 24.9996 48.8896C24.1219 48.8889 23.2605 48.652 22.5059 48.2037Z" fill="#2F3A3E"/>
<path d="M39.6499 36.1445L35.7267 38.4908C35.6217 38.533 35.5513 38.6331 35.547 38.7463V39.7775C35.547 39.9036 35.6321 39.9541 35.7362 39.8942L39.7193 37.4722C39.8168 37.3991 39.8635 37.2763 39.8391 37.1568V36.2517C39.8359 36.135 39.7445 36.0846 39.6499 36.1445Z" fill="#3AB14A"/>
<path d="M31.3014 27.5062C31.4275 27.4432 31.5316 27.5062 31.5347 27.686L31.5473 29.0547C32.0191 28.8403 32.5454 28.7765 33.0548 28.8718C33.1525 28.897 33.1935 29.0294 33.1557 29.1871L32.8561 30.3887C32.8334 30.4793 32.7865 30.5622 32.7205 30.6283C32.6973 30.6512 32.6707 30.6704 32.6417 30.6851C32.606 30.7044 32.5649 30.711 32.525 30.704C32.0283 30.594 31.5084 30.6775 31.0711 30.9374C30.4318 31.2254 30.0138 31.8542 29.9958 32.5552C29.9958 33.1859 30.3111 33.3594 31.4117 33.3783C32.8656 33.4035 33.4963 34.0374 33.5121 35.5039C33.4775 37.0345 32.7717 38.4726 31.582 39.4365L31.6073 40.7799C31.605 40.9468 31.5183 41.1011 31.377 41.1899L30.5823 41.6472C30.4562 41.7102 30.3521 41.6472 30.349 41.4705V40.1492C29.6678 40.433 28.9771 40.4992 28.5356 40.3226C28.4536 40.2911 28.4158 40.1681 28.4505 40.0262L28.7374 38.812C28.7593 38.7159 28.8086 38.6283 28.8794 38.5597C28.9018 38.5382 28.9273 38.5202 28.9551 38.5061C28.9962 38.4876 29.0432 38.4876 29.0844 38.5061C29.6465 38.6586 30.2462 38.5826 30.7526 38.2948C31.4834 37.9424 31.9584 37.2136 31.9857 36.4026C31.9857 35.7215 31.6104 35.4376 30.7242 35.4313C29.5795 35.4313 28.5167 35.2106 28.4946 33.5391C28.521 32.0789 29.1988 30.707 30.3427 29.7989L30.2859 28.4239C30.2854 28.2547 30.3725 28.0972 30.5161 28.0077L31.3014 27.5062Z" fill="white"/>
</svg>
