<svg width="50" height="50" viewBox="0 0 50 50" fill="none" xmlns="http://www.w3.org/2000/svg">
<path d="M16.6812 24.9578C16.5646 27.7563 17.1985 30.5351 18.5172 33.0062C19.4972 34.65 21.0027 35.9154 22.7905 36.5981C24.5784 37.2808 26.5441 37.3409 28.3703 36.7687C29.6397 36.411 30.7752 35.6863 31.6341 34.6856C32.4931 33.6849 33.0373 32.4527 33.1984 31.1437C33.3656 30.2062 33.3688 30.1906 33.3688 30.1906C36.0828 30.5828 40.4578 31.2187 43.1719 31.6062L43 32.2937C42.3857 35.4324 40.9271 38.3441 38.7813 40.7156C36.5178 42.9905 33.5742 44.4651 30.3969 44.9156C26.053 45.7511 21.56 45.3065 17.4641 43.6359C15.3439 42.7602 13.439 41.4349 11.8806 39.7517C10.3223 38.0684 9.14754 36.0671 8.4375 33.8859C6.2729 28.1169 6.28346 21.7571 8.46719 15.9953C9.49773 13.0079 11.3662 10.3802 13.8495 8.42585C16.3327 6.47147 19.326 5.27297 22.4719 4.97342C25.9611 4.37411 29.5454 4.67254 32.8875 5.8406C35.2742 6.67638 37.41 8.10373 39.0951 9.9892C40.7803 11.8747 41.9598 14.1567 42.5234 16.6219C42.6703 17.1719 42.7016 17.2734 42.7016 17.2734C39.6828 17.8219 35.9531 18.5234 32.9547 19.1719C32.3891 16.1797 30.9781 13.8156 27.9547 13.0781C26.9099 12.7541 25.8109 12.6419 24.7222 12.7479C23.6335 12.8539 22.5768 13.1761 21.6141 13.6956C20.6515 14.215 19.8021 14.9213 19.1158 15.7731C18.4295 16.6249 17.92 17.6051 17.6172 18.6562C17.3636 19.3905 17.1626 20.1419 17.0156 20.9047C16.7612 22.2401 16.6492 23.5987 16.6812 24.9578Z" fill="#005F91"/>
</svg>
