<svg width="50" height="50" viewBox="0 0 50 50" fill="none" xmlns="http://www.w3.org/2000/svg">
<path d="M25 46.875C37.0812 46.875 46.875 37.0812 46.875 25C46.875 12.9188 37.0812 3.125 25 3.125C12.9188 3.125 3.125 12.9188 3.125 25C3.125 37.0812 12.9188 46.875 25 46.875Z" fill="#1794D4"/>
<path d="M28.125 10.9375H25V14.0625H28.125V10.9375Z" fill="white"/>
<path d="M15.625 15.625H18.75V18.75H15.625V15.625Z" fill="white"/>
<path d="M9.37742 26.4709C9.64444 31.0042 12.3442 37.5 21.875 37.5C32.5 37.5 37.2395 29.6875 38.2812 25.7812C39.5833 25.7812 42.5 25 43.75 21.875C42.9688 21.0938 39.8438 21.0938 38.2812 21.875C38.2812 20.625 37.5 17.9688 35.9375 17.1875C34.8958 18.2292 33.2812 20.9375 35.1562 23.4375C34.375 25 32.2917 25 31.25 25H10.8483C10.021 25 9.32877 25.645 9.37742 26.4709Z" fill="white"/>
<path d="M14.0625 20.3125H10.9375V23.4375H14.0625V20.3125Z" fill="white"/>
<path d="M15.625 20.3125H18.75V23.4375H15.625V20.3125Z" fill="white"/>
<path d="M23.4375 20.3125H20.3125V23.4375H23.4375V20.3125Z" fill="white"/>
<path d="M25 20.3125H28.125V23.4375H25V20.3125Z" fill="white"/>
<path d="M32.8125 20.3125H29.6875V23.4375H32.8125V20.3125Z" fill="white"/>
<path d="M23.4375 15.625H20.3125V18.75H23.4375V15.625Z" fill="white"/>
<path d="M25 15.625H28.125V18.75H25V15.625Z" fill="white"/>
</svg>
