<svg width="50" height="50" viewBox="0 0 50 50" fill="none" xmlns="http://www.w3.org/2000/svg">
<path fill-rule="evenodd" clip-rule="evenodd" d="M20.3381 3.125C16.9052 3.125 14.1223 5.81958 14.1223 9.14352V13.3102H24.8805V14.4676H9.34084C5.90792 14.4676 3.125 17.1622 3.125 20.4861V29.5139C3.125 32.8378 5.90792 35.5323 9.34084 35.5323H12.9269V30.4398C12.9269 27.1159 15.7098 24.4213 19.1428 24.4213H30.6181C33.523 24.4213 35.8777 22.1413 35.8777 19.3288V9.14352C35.8777 5.81958 33.0948 3.125 29.6619 3.125H20.3381ZM18.9037 10.5324C20.092 10.5324 21.0553 9.59966 21.0553 8.44908C21.0553 7.29848 20.092 6.36573 18.9037 6.36573C17.7153 6.36573 16.752 7.29848 16.752 8.44908C16.752 9.59966 17.7153 10.5324 18.9037 10.5324Z" fill="url(#paint0_linear_5_47)"/>
<path fill-rule="evenodd" clip-rule="evenodd" d="M29.6616 46.875C33.0945 46.875 35.8775 44.1805 35.8775 40.8566V36.6898H25.1192V35.5325H40.6589C44.0919 35.5325 46.8747 32.8378 46.8747 29.5139V20.4861C46.8747 17.1622 44.0919 14.4676 40.6589 14.4676H37.0728V19.5602C37.0728 22.8842 34.2898 25.5787 30.857 25.5787H19.3816C16.4767 25.5787 14.122 27.8587 14.122 30.6712V40.8566C14.122 44.1805 16.905 46.875 20.3378 46.875H29.6616ZM31.0961 39.4676C29.9076 39.4676 28.9444 40.4003 28.9444 41.5509C28.9444 42.7016 29.9076 43.6342 31.0961 43.6342C32.2844 43.6342 33.2476 42.7016 33.2476 41.5509C33.2476 40.4003 32.2844 39.4676 31.0961 39.4676Z" fill="url(#paint1_linear_5_47)"/>
<defs>
<linearGradient id="paint0_linear_5_47" x1="19.5014" y1="3.125" x2="19.5014" y2="35.5323" gradientUnits="userSpaceOnUse">
<stop stop-color="#327EBD"/>
<stop offset="1" stop-color="#1565A7"/>
</linearGradient>
<linearGradient id="paint1_linear_5_47" x1="30.4984" y1="14.4676" x2="30.4984" y2="46.875" gradientUnits="userSpaceOnUse">
<stop stop-color="#FFDA4B"/>
<stop offset="1" stop-color="#F9C600"/>
</linearGradient>
</defs>
</svg>
