<svg width="50" height="50" viewBox="0 0 50 50" fill="none" xmlns="http://www.w3.org/2000/svg">
<path d="M8.48833 6.2371C8.60965 4.09108 9.12227 3.15787 10.5923 2.40848C12.1741 1.60189 14.6689 1.97725 17.6045 3.46379C18.8689 4.10437 18.9976 4.11742 21.2135 3.83331C24.159 3.45554 27.9508 3.45687 30.6694 3.83677C32.7252 4.12406 32.8602 4.10971 34.1277 3.46779C38.2946 1.35768 41.5844 1.49575 42.7756 3.83064C43.3702 4.9961 43.4806 8.02025 43.0196 10.5145C42.764 11.8973 42.791 12.0699 43.4069 12.9774C47.7396 19.3622 44.6177 29.7117 37.1933 33.574C36.6252 33.8696 36.1465 34.0525 35.7563 34.2015C34.5581 34.659 34.1944 34.7979 34.6348 36.9038C34.8469 37.9167 35.1023 40.435 35.2027 42.5004C35.3842 46.2338 35.3815 46.2598 34.7267 47.0215C33.8354 48.0575 32.5508 48.075 31.6804 47.0629C31.1127 46.4029 31.0573 46.0913 31.0573 43.5448C31.0573 39.7817 30.6448 37.2804 29.6702 35.1371C28.5112 32.5865 29.3704 31.6354 32.0208 31.0654C35.7048 30.2729 38.5821 27.9994 40.1858 24.6138C41.7106 21.3954 41.9404 16.948 39.1838 14.2431C38.3998 13.3115 38.3452 12.4676 38.905 9.92312C39.1142 8.9721 39.2896 7.74519 39.2948 7.19637C39.3027 6.32967 39.2237 6.19879 38.6915 6.19879C38.3546 6.19879 37.0675 6.68881 35.8317 7.28762L33.8592 8.24366C33.6798 8.33056 33.4792 8.36398 33.2812 8.34127C28.2656 7.76556 23.4998 7.75666 18.4596 8.34352C18.261 8.36664 18.0594 8.33323 17.8795 8.24589L15.908 7.28923C14.6721 6.68933 13.385 6.19879 13.0483 6.19879C12.2696 6.19879 12.2579 6.77366 12.9676 10.1891C13.4012 12.2751 13.693 12.7399 12.4396 14.4078C10.5609 16.9079 10.0917 20.0124 11.0991 23.2742C12.3688 27.3846 15.4781 30.1615 19.8494 31.0879C22.4846 31.6465 23.1733 32.3752 22.1671 35.3969C21.375 37.7748 20.8742 38.3877 19.7231 38.3877C18.1743 38.3877 17.2041 37.0461 17.738 35.6421C17.9732 35.0234 17.9032 34.9573 16.4523 34.4281C12.0233 32.8134 8.63571 29.194 7.08692 24.4215C5.88981 20.733 6.41654 15.9321 8.33698 13.0303C8.99085 12.0423 9.00098 11.9585 8.69583 10.067C8.52319 8.99631 8.42981 7.273 8.48833 6.2371Z" fill="white"/>
<path d="M6.94173 33.2196C6.3035 32.2623 5.01002 32.0035 4.05267 32.6419C3.09533 33.28 2.83663 34.5735 3.47486 35.5308C3.94604 36.2377 4.50973 36.8183 4.98842 37.2969C5.07667 37.3852 5.16242 37.4704 5.24615 37.5535C5.64713 37.9519 6.00117 38.3035 6.35675 38.721C7.14323 39.6442 7.92783 40.8875 8.37375 43.1171C8.57238 44.1102 9.28623 44.6452 9.68177 44.8789C10.1107 45.1323 10.5794 45.2817 10.9651 45.3789C11.7541 45.5779 12.7119 45.6812 13.6208 45.7414C14.6186 45.8077 15.6998 45.8292 16.6666 45.835C16.6674 46.9848 17.5998 47.9169 18.75 47.9169C19.9006 47.9169 20.8333 46.9842 20.8333 45.8335V43.7502C20.8333 42.5996 19.9006 41.6669 18.75 41.6669C18.5536 41.6669 18.3411 41.6675 18.116 41.6683C16.8934 41.6721 15.2997 41.6769 13.8962 41.5839C13.2194 41.5392 12.663 41.4756 12.255 41.3979C11.6267 38.9314 10.6117 37.2904 9.5286 36.0189C9.04981 35.4571 8.55402 34.9654 8.15075 34.5654C8.07525 34.4906 8.003 34.4189 7.93469 34.3506C7.46938 33.8854 7.165 33.5546 6.94173 33.2196Z" fill="white"/>
</svg>
