<svg width="50" height="50" viewBox="0 0 50 50" fill="none" xmlns="http://www.w3.org/2000/svg">
<g clip-path="url(#clip0_6_86)">
<path d="M46.4206 20.4606C46.9797 18.777 47.173 16.9935 46.9878 15.2292C46.8025 13.465 46.2429 11.7605 45.3463 10.2298C44.017 7.9161 41.9874 6.08429 39.55 4.99846C37.1125 3.91263 34.3933 3.62889 31.7842 4.18814C30.3019 2.53931 28.4118 1.30953 26.3039 0.622327C24.1959 -0.06488 21.9442 -0.185324 19.775 0.27309C17.6057 0.731505 15.5953 1.75264 13.9456 3.23393C12.2958 4.71523 11.0649 6.60453 10.3765 8.71209C8.63827 9.06853 6.99617 9.79186 5.55991 10.8337C4.12365 11.8756 2.92631 13.2121 2.04792 14.7538C0.704243 17.0636 0.129964 19.7409 0.40811 22.3986C0.686255 25.0564 1.80241 27.5568 3.59521 29.5383C3.0341 31.2211 2.8388 33.0043 3.0224 34.7687C3.20599 36.533 3.76424 38.2378 4.6598 39.769C5.99071 42.0835 8.02213 43.9157 10.4613 45.0016C12.9004 46.0874 15.6213 46.3708 18.2319 45.8108C19.4095 47.137 20.8565 48.1966 22.4763 48.919C24.096 49.6414 25.8513 50.01 27.6248 50C30.299 50.0025 32.9049 49.1551 35.0662 47.5802C37.2275 46.0053 38.8325 43.7843 39.6494 41.2379C41.3874 40.8809 43.0292 40.1573 44.4654 39.1154C45.9016 38.0735 47.0991 36.7374 47.9779 35.196C49.3057 32.8896 49.8701 30.2223 49.5904 27.5757C49.3107 24.9291 48.2012 22.4386 46.4206 20.4606ZM27.6248 46.7275C25.4346 46.731 23.3131 45.9633 21.6323 44.5592L21.9279 44.3917L31.8827 38.6454C32.1305 38.5001 32.3362 38.2929 32.4796 38.044C32.623 37.7952 32.6993 37.5133 32.7008 37.226V23.1908L36.9092 25.6254C36.93 25.636 36.948 25.6513 36.9617 25.6701C36.9755 25.6889 36.9846 25.7107 36.9883 25.7338V37.3642C36.9831 39.8459 35.9948 42.2245 34.24 43.9793C32.4851 45.7341 30.1065 46.7223 27.6248 46.7275ZM7.49834 38.1329C6.39995 36.2363 6.00557 34.0131 6.38459 31.8544L6.68042 32.0319L16.645 37.7781C16.8916 37.9228 17.1723 37.9991 17.4581 37.9991C17.744 37.9991 18.0247 37.9228 18.2713 37.7781L30.4438 30.7604V35.6196C30.4426 35.6448 30.4358 35.6694 30.4238 35.6916C30.4118 35.7137 30.395 35.7329 30.3746 35.7477L20.2917 41.5629C18.1399 42.8025 15.5841 43.1376 13.1854 42.4945C10.7868 41.8514 8.74142 40.2827 7.49834 38.1329ZM4.87667 16.4492C5.98268 14.5404 7.7284 13.0844 9.80479 12.3392V24.1667C9.80105 24.4524 9.87406 24.7339 10.0162 24.9818C10.1583 25.2297 10.3644 25.4349 10.6129 25.576L22.7263 32.5642L18.5177 34.9985C18.4949 35.0106 18.4695 35.017 18.4438 35.017C18.418 35.017 18.3926 35.0106 18.3698 34.9985L8.30667 29.1933C6.15888 27.9484 4.59198 25.903 3.9491 23.5052C3.30622 21.1073 3.63976 18.5524 4.87667 16.4V16.4492ZM39.4523 24.4821L27.2996 17.425L31.4983 15C31.5211 14.9879 31.5465 14.9816 31.5723 14.9816C31.5981 14.9816 31.6235 14.9879 31.6463 15L41.7094 20.8152C43.248 21.703 44.5024 23.0102 45.326 24.5842C46.1496 26.1582 46.5084 27.9339 46.3606 29.7042C46.2129 31.4744 45.5646 33.1661 44.4914 34.5818C43.4183 35.9974 41.9646 37.0785 40.3 37.699V25.8715C40.2913 25.5862 40.2085 25.3081 40.0599 25.0645C39.9112 24.8209 39.702 24.6203 39.4523 24.4821ZM43.6413 18.184L43.3454 18.0065L33.4006 12.2111C33.1526 12.0655 32.8701 11.9887 32.5825 11.9887C32.2949 11.9887 32.0124 12.0655 31.7644 12.2111L19.6021 19.2285V14.3696C19.5995 14.3449 19.6036 14.3199 19.614 14.2974C19.6245 14.2748 19.6408 14.2555 19.6613 14.2415L29.7244 8.43605C31.2667 7.54755 33.0301 7.11655 34.8084 7.19346C36.5867 7.27038 38.3063 7.85203 39.7661 8.87039C41.226 9.88875 42.3657 11.3017 43.0519 12.944C43.7382 14.5863 43.9427 16.3901 43.6415 18.1444L43.6413 18.184ZM17.3052 26.7979L13.0969 24.3733C13.0758 24.3607 13.0578 24.3435 13.0441 24.3231C13.0305 24.3027 13.0214 24.2795 13.0177 24.2552V12.6546C13.02 10.875 13.5289 9.13275 14.4849 7.63167C15.4409 6.1306 16.8044 4.93269 18.4161 4.17801C20.0278 3.42332 21.8211 3.14305 23.5862 3.36997C25.3513 3.59688 27.0153 4.3216 28.3838 5.45939L28.0879 5.62709L18.1333 11.3729C17.8856 11.5182 17.6799 11.7255 17.5364 11.9743C17.393 12.2232 17.3168 12.5051 17.3152 12.7923L17.3052 26.7979ZM19.5919 21.87L25.0127 18.7454L30.4438 21.87V28.1188L25.0325 31.2431L19.6019 28.1188L19.5919 21.87Z" fill="white"/>
</g>
<defs>
<clipPath id="clip0_6_86">
<rect width="50" height="50" fill="white"/>
</clipPath>
</defs>
</svg>
