<svg width="50" height="50" viewBox="0 0 50 50" fill="none" xmlns="http://www.w3.org/2000/svg">
<path d="M3.51389 22.7036C3.51389 22.1619 3.95833 21.9536 4.69444 21.9536C5.75 21.9536 7.08333 22.273 8.13889 22.8424V19.5786C6.98611 19.1202 5.84722 18.9397 4.69444 18.9397C1.875 18.9397 0 20.4119 0 22.8702C0 26.7036 5.27778 26.0924 5.27778 27.7452C5.27778 28.3841 4.72222 28.5924 3.94444 28.5924C2.79167 28.5924 1.31944 28.1202 0.152778 27.4813V30.7869C1.44444 31.3424 2.75 31.5786 3.94444 31.5786C6.83333 31.5786 8.81944 30.148 8.81944 27.6619C8.80556 23.523 3.51389 24.2591 3.51389 22.7036ZM12.9028 16.1619L9.51389 16.8841L9.5 28.0091C9.5 30.0647 11.0417 31.5786 13.0972 31.5786C14.2361 31.5786 15.0694 31.3702 15.5278 31.1202V28.3008C15.0833 28.4813 12.8889 29.1202 12.8889 27.0647V22.1341H15.5278V19.1758H12.8889L12.9028 16.1619ZM19.8472 20.2036L19.625 19.1758H16.625V31.3286H20.0972V23.0924C20.9167 22.023 22.3056 22.2174 22.7361 22.3702V19.1758C22.2917 19.0091 20.6667 18.7036 19.8472 20.2036ZM23.5833 19.1758H27.0694V31.3286H23.5833V19.1758ZM23.5833 18.1202L27.0694 17.3702V14.5508L23.5833 15.2869V18.1202ZM34.3194 18.9397C32.9583 18.9397 32.0833 19.5786 31.5972 20.023L31.4167 19.1619H28.3611V35.3563L31.8333 34.6202L31.8472 30.6897C32.3472 31.0508 33.0833 31.5647 34.3056 31.5647C36.7917 31.5647 39.0556 29.5647 39.0556 25.1619C39.0417 21.1341 36.75 18.9397 34.3194 18.9397ZM33.4861 28.5091C32.6667 28.5091 32.1806 28.2174 31.8472 27.8563L31.8333 22.7036C32.1944 22.3008 32.6944 22.023 33.4861 22.023C34.75 22.023 35.625 23.4397 35.625 25.2591C35.625 27.1202 34.7639 28.5091 33.4861 28.5091ZM50 25.3008C50 21.7452 48.2778 18.9397 44.9861 18.9397C41.6806 18.9397 39.6806 21.7452 39.6806 25.273C39.6806 29.4536 42.0417 31.5647 45.4306 31.5647C47.0833 31.5647 48.3333 31.1897 49.2778 30.6619V27.8841C48.3333 28.3563 47.25 28.648 45.875 28.648C44.5278 28.648 43.3333 28.1758 43.1806 26.5369H49.9722C49.9722 26.3563 50 25.6341 50 25.3008ZM43.1389 23.9813C43.1389 22.4119 44.0972 21.7591 44.9722 21.7591C45.8194 21.7591 46.7222 22.4119 46.7222 23.9813H43.1389Z" fill="#6772E5"/>
</svg>
